<svg xmlns="http://www.w3.org/2000/svg" width="39.644" height="40.29" viewBox="0 0 39.644 40.29"><defs><style>.a{fill:#022439;}.b{fill:#10beca;}.c{fill:#f8bc02;}.d{fill:#14e0e9;}.e{fill:#fd316e;}</style></defs><path class="a" d="M12.782,27.214c-.136-.568-.213-1.151-.4-1.708-.132-.679-.281-1.353-.428-2.029-.137-.628-.239-1.264-.4-1.889-.106-.6-.233-1.2-.394-1.787a.737.737,0,0,0-.068-.372,14.8,14.8,0,0,1-.39-1.671c-.11-.675-.279-1.336-.393-2.009-.143-.567-.222-1.149-.4-1.708a1.857,1.857,0,0,0-.021-.266q-.325-1.466-.658-2.931c-.064-.283-.146-.562-.22-.843a1.945,1.945,0,0,0-1.9-1.738c-.92-.008-1.839,0-2.759-.01A1.586,1.586,0,0,1,3.083,7.73a1.449,1.449,0,0,1,.844-2.363,14.492,14.492,0,0,1,4.605.087,4.441,4.441,0,0,1,3.343,3.251c.066.207.136.289.372.282.721-.023,1.444,0,2.165-.017.218,0,.258.068.254.268-.013.665-.007,1.331,0,2,0,.188.026.376.039.563a8.044,8.044,0,0,1-1.051.095.907.907,0,0,0-.791.92,4,4,0,0,0,.136.849q.413,1.928.827,3.856a2.4,2.4,0,0,0,.132.6c.072.418.169.833.26,1.248.024.108.064.207.209.207q1.4-.009,2.807-.014a4.011,4.011,0,0,1,1.2.105c.047.036.092.074.14.108a1.254,1.254,0,0,1,.36,1.591,1.427,1.427,0,0,1-.736.553c-.158.006-.316.015-.475.016-.643,0-1.286-.011-1.93,0a.731.731,0,0,0-.777.957c.108.585.24,1.165.364,1.748.276,1.29.544,2.582.832,3.869a1.519,1.519,0,0,0,1.642,1.394q6.679.013,13.358.016a.667.667,0,0,0,.377-.049,2.933,2.933,0,0,0,1.918-1.046,4.794,4.794,0,0,0,.962-2.477l.08-.011c.89.006,1.78.024,2.671.011.281,0,.357.04.316.347a7.349,7.349,0,0,1-2.295,4.678A5.469,5.469,0,0,1,31.5,32.844c-5.759.021-11.519.01-17.279.01-.078,0-.157-.013-.235-.019-.12-.61-.232-1.222-.363-1.829-.114-.528-.293-1.045-.365-1.577-.1-.752-.332-1.471-.475-2.212Z" transform="translate(-0.824 -1.551)"/><path class="a" d="M26.855,10.143c.007-.825.02-1.65.016-2.475,0-.193.049-.246.242-.245,1.494.008,2.988,0,4.482.011.246,0,.348-.04.328-.32a9.374,9.374,0,0,0-.1-1.691,3.429,3.429,0,0,0-6.69.177,3.072,3.072,0,0,0-.036.594c0,1.144.006,2.287,0,3.431a1.385,1.385,0,0,1-1.565,1.458,1.362,1.362,0,0,1-1.213-1.328c-.02-1.452-.083-2.909.017-4.353a5.6,5.6,0,0,1,2.577-4.258,6.293,6.293,0,0,1,9.108,2.094,5.407,5.407,0,0,1,.727,2.758c-.007.378.014.757-.009,1.133-.016.259.08.305.317.3,2.049-.011,4.1-.006,6.145-.009a5.09,5.09,0,0,1,2.182.483,5.234,5.234,0,0,1,2.893,5.451,7.833,7.833,0,0,1-.207,1.049,2.072,2.072,0,0,1-2.041,1.554c-.475.008-.95-.007-1.424-.011,0-.075.007-.149.01-.224.182-.815.413-1.62.534-2.448a2.166,2.166,0,0,0-.606-2.283,2.88,2.88,0,0,0-2.171-.684l-12.664,0c-.218,0-.435-.013-.652-.006-.122,0-.185-.039-.2-.159Z" transform="translate(-6.686 0)"/><path class="b" d="M25.332,14.422c.01.121.073.163.2.159.217-.007.435.006.652.006l12.664,0a2.882,2.882,0,0,1,2.171.684,2.166,2.166,0,0,1,.606,2.283,2.662,2.662,0,0,0-.311-.532,2.555,2.555,0,0,0-1.986-.833c-4.146-.007-8.293,0-12.439-.006-.775,0-.847.231-1.06.828a4.6,4.6,0,0,1-.526,1.155,4.218,4.218,0,0,1-2.006,1.64c-.279.1-.567.185-.842.316h.206q9.01,0,18.02,0A.741.741,0,0,0,41.086,20c0,.075-.006.149-.01.224l-.092.023c-.168,0-.335-.014-.5-.014q-7.918,0-15.836,0c-1.6,0-3.2.006-4.8.009a14.884,14.884,0,0,0-1.68,0q-.414-1.927-.827-3.856a3.954,3.954,0,0,1-.136-.849.907.907,0,0,1,.791-.92,8.043,8.043,0,0,0,1.051-.095,3.613,3.613,0,0,0,.812,1.587,3.133,3.133,0,0,0,4.577.146,3.4,3.4,0,0,0,.9-1.838Z" transform="translate(-5.162 -4.279)"/><path class="b" d="M11.958,36.492c.142.741.372,1.46.475,2.212.072.532.251,1.05.365,1.577.131.608.244,1.219.363,1.829a.806.806,0,0,1-.352.02q-1.692,0-3.384,0a.828.828,0,0,1-.885-.672A1.068,1.068,0,0,0,7.3,40.526c-1.752,0-3.5.011-5.255-.013A1.957,1.957,0,0,1,.156,39.237a1.908,1.908,0,0,1,1.579-2.667c.306,0,.612-.039.918-.037,3.017.014,6.035-.027,9.052.027a.376.376,0,0,0,.252-.068Z" transform="translate(0 -10.828)"/><path class="b" d="M17.831,54.96c.087.1.2.06.307.059,3.5-.047,7.007.035,10.51.052.113,0,.238.045.339-.05a3.283,3.283,0,0,0,3.828.061,9.446,9.446,0,0,0,1.291.11c1.254.048,2.507.127,3.753.282a4.09,4.09,0,0,1,.631.15c.066.02.156.049.149.158s-.092.118-.164.143a6.064,6.064,0,0,1-1.66.275c-1.155.072-2.31.134-3.466.173-4.944.167-9.89.249-14.837.22-2.879-.017-5.758-.039-8.635-.125-2.391-.071-4.785-.119-7.171-.328a3.965,3.965,0,0,1-.985-.188c-.1-.035-.234-.068-.22-.2s.147-.174.265-.193A21.994,21.994,0,0,1,4.3,55.306c3.042-.158,6.087-.258,9.133-.248A.483.483,0,0,0,13.769,55a3.329,3.329,0,0,0,4.061-.044Z" transform="translate(-0.45 -16.309)"/><path class="c" d="M20.975,22.7q2.4-.005,4.8-.009,7.918,0,15.836,0c.168,0,.335.009.5.014a14.454,14.454,0,0,1-.3,1.428,2.924,2.924,0,0,0-.086.665l-.122.048c-.265,0-.529-.009-.794-.009q-7.328,0-14.656,0c-.752,0-1.5.009-2.254.014a4,4,0,0,0-1.2-.105.6.6,0,0,1-.372-.179,1.4,1.4,0,0,1-.253-.5,4.562,4.562,0,0,0-1.1-1.363Z" transform="translate(-6.295 -6.733)"/><path class="c" d="M10.758,28.487c.159.625.26,1.261.4,1.889.148.675.3,1.35.428,2.029-.821.007-1.641.02-2.462.02-2.4,0-4.807-.015-7.21-.011a2.018,2.018,0,0,1-1.839-1.85A1.952,1.952,0,0,1,2.064,28.47q4.05.006,8.1.006c.2,0,.4.006.593.011Z" transform="translate(-0.022 -8.448)"/><path class="c" d="M9.506,20.191c.113.673.283,1.334.393,2.009a14.993,14.993,0,0,0,.39,1.671.737.737,0,0,1,.068.372c-.83.056-1.661.025-2.491.027q-2.671.006-5.341-.006a3.008,3.008,0,0,1-1.279-.2,1.862,1.862,0,0,1-1.2-1.729,1.9,1.9,0,0,1,1.839-2.069c1.463-.016,2.927-.021,4.39-.026.9,0,1.8,0,2.7,0,.176,0,.351-.032.528-.05Z" transform="translate(-0.014 -5.991)"/><path class="c" d="M40.782,34.357l-.08.011a2.03,2.03,0,0,0-.234-.026q-5.309,0-10.618.008-2.194,0-4.388.011A4.327,4.327,0,0,0,23.5,32.328c.4-.026.76-.069,1.118-.07q4.852-.011,9.7-.008l6.943,0-.012.009a2.73,2.73,0,0,0-.237.863,5.863,5.863,0,0,0-.239,1.238Z" transform="translate(-7.054 -9.569)"/><path class="c" d="M8.2,12.015c.073.281.155.56.22.843q.335,1.464.658,2.931a1.857,1.857,0,0,1,.021.266c-.465,0-.929.014-1.394.014-1.871,0-3.742-.014-5.612,0A2.04,2.04,0,0,1,.117,14.707a2.2,2.2,0,0,1,.594-2.2,2.029,2.029,0,0,1,1.343-.5l6.146.007Z" transform="translate(-0.006 -3.563)"/><path class="a" d="M22.525,52.428a3.329,3.329,0,0,1-4.061.044,3.666,3.666,0,0,1-1.232-1.883,3.356,3.356,0,0,1,6.312-2.2,3.28,3.28,0,0,1-.67,3.715c-.11.114-.231.217-.347.325Zm-2.951-2.647a.916.916,0,0,0,.85.933.934.934,0,0,0,.995-.941.946.946,0,0,0-.915-.912.912.912,0,0,0-.93.92Z" transform="translate(-5.145 -13.776)"/><path class="a" d="M44.018,52.548a3.283,3.283,0,0,1-3.828-.061,3.359,3.359,0,1,1,5.3-3.175,3.3,3.3,0,0,1-1.473,3.236Zm-2.741-2.777a.918.918,0,0,0,.925.951.934.934,0,0,0,0-1.867.891.891,0,0,0-.922.916Z" transform="translate(-11.653 -13.774)"/><path class="a" d="M48.871,30.306l.012-.009c.074-.333.146-.667.224-1,.1-.433.21-.864.316-1.3a.692.692,0,0,0,.045-.108q.259-1.081.516-2.163l.122-.048c.386,0,.772-.008,1.158-.007a1.785,1.785,0,0,1,1.818,2.1,2.921,2.921,0,0,1-2.875,2.544c-.444,0-.89-.012-1.335-.019Z" transform="translate(-14.667 -7.619)"/><path class="b" d="M40.832,28.977c-.106.432-.213.863-.316,1.3-.078.332-.15.666-.224,1l-6.943,0q-4.852,0-9.7.008c-.358,0-.716.044-1.118.07a4.331,4.331,0,0,1,1.958,2.032,7.4,7.4,0,0,1,.507,1.452c.123.537.195,1.087.27,1.634.057.415.068.438.492.438h7.028q2.031,0,4.062.006a.667.667,0,0,1-.377.049q-6.679-.005-13.358-.016a1.519,1.519,0,0,1-1.642-1.394c-.288-1.287-.557-2.579-.832-3.869-.125-.582-.255-1.162-.364-1.748a.731.731,0,0,1,.777-.957c.643-.015,1.286,0,1.93,0,.158,0,.316-.011.475-.016.178.006.356.018.533.018,1.769,0,3.539-.006,5.309-.006q5.769,0,11.538,0Z" transform="translate(-6.078 -8.594)"/><path class="d" d="M38.662,38.775q-2.031,0-4.062-.006H27.572c-.424,0-.435-.023-.492-.438-.076-.547-.147-1.1-.27-1.634a7.426,7.426,0,0,0-.507-1.452q2.194-.005,4.388-.011,5.309-.005,10.618-.008a2.031,2.031,0,0,1,.234.026,4.788,4.788,0,0,1-.962,2.477A2.934,2.934,0,0,1,38.662,38.775Z" transform="translate(-7.894 -10.453)"/><path class="e" d="M42.205,28.022q-5.769,0-11.538,0-2.654,0-5.309.006c-.178,0-.356-.012-.533-.018a1.432,1.432,0,0,0,.736-.553,1.253,1.253,0,0,0-.36-1.591c-.048-.034-.093-.072-.14-.108.751,0,1.5-.014,2.254-.014H41.972c.265,0,.529.006.794.009q-.257,1.081-.516,2.163a.721.721,0,0,1-.045.108Z" transform="translate(-7.451 -7.638)"/><path class="e" d="M20.254,22.692a4.571,4.571,0,0,1,1.1,1.363,1.406,1.406,0,0,0,.253.5.6.6,0,0,0,.372.179q-1.4.006-2.808.014c-.145,0-.185-.1-.209-.207-.092-.415-.188-.829-.26-1.248a2.421,2.421,0,0,1-.132-.6,14.72,14.72,0,0,1,1.68,0Z" transform="translate(-5.574 -6.726)"/><path class="d" d="M43.338,20.749a.74.74,0,0,1-.409.124q-9.01-.006-18.02,0H24.7c.275-.131.563-.214.842-.316a4.222,4.222,0,0,0,2.006-1.64,4.571,4.571,0,0,0,.526-1.155c.213-.6.284-.83,1.06-.828,4.146,0,8.293,0,12.439.006a2.556,2.556,0,0,1,1.986.833,2.7,2.7,0,0,1,.311.532c-.12.828-.352,1.633-.534,2.448Z" transform="translate(-7.414 -5.024)"/><path class="d" d="M20.618,50.808a.912.912,0,0,1,.93-.92.946.946,0,0,1,.915.912.934.934,0,0,1-.995.941.916.916,0,0,1-.85-.933Z" transform="translate(-6.188 -14.803)"/><path class="d" d="M42.327,50.8a.89.89,0,0,1,.922-.916.934.934,0,0,1,0,1.867.918.918,0,0,1-.925-.951Z" transform="translate(-12.703 -14.802)"/></svg>