<svg xmlns="http://www.w3.org/2000/svg" width="27.11" height="24.304" viewBox="0 0 27.11 24.304"><defs><style>.a{fill:#022439;}</style></defs><path class="a" d="M1.139,0a1.139,1.139,0,0,0,0,2.278H3.3a.385.385,0,0,1,.375.309L6.123,15.451a3.417,3.417,0,0,0,3.356,2.777H23.164a1.139,1.139,0,1,0,0-2.278H9.479a1.144,1.144,0,0,1-1.12-.926L8.1,13.671H21.8a3.409,3.409,0,0,0,3.3-2.53l1.946-7.229A1.9,1.9,0,0,0,25.21,1.519H5.7A2.653,2.653,0,0,0,3.3,0ZM6.223,3.8H24.717L22.9,10.547a1.138,1.138,0,0,1-1.1.845H7.671ZM8.354,24.3a2.278,2.278,0,1,0-2.278-2.278A2.278,2.278,0,0,0,8.354,24.3ZM24.3,22.025A2.278,2.278,0,1,0,22.025,24.3,2.278,2.278,0,0,0,24.3,22.025Z"/></svg>